<?xml version="1.0" encoding="utf-8"?>
<!-- Generator: Adobe Illustrator 16.0.2, SVG Export Plug-In . SVG Version: 6.00 Build 0)  -->
<!DOCTYPE svg PUBLIC "-//W3C//DTD SVG 1.1//EN" "http://www.w3.org/Graphics/SVG/1.1/DTD/svg11.dtd">
<svg version="1.1" id="Layer_1" xmlns="http://www.w3.org/2000/svg" xmlns:xlink="http://www.w3.org/1999/xlink" x="0px" y="0px"
	 width="200px" height="200px" viewBox="0 0 200 200" enable-background="new 0 0 200 200" xml:space="preserve">
<g>
	<g>
		<ellipse opacity="0.1" fill="#444444" enable-background="new    " cx="44.04" cy="126.768" rx="17.564" ry="1.712"/>
		<path fill="#F8CB43" d="M61.209,91.288c0-2.546-2.02-4.566-4.567-4.566c-0.307,0-0.571,0.044-0.834,0.087
			c-2.811-3.425-7.026-5.621-11.768-5.621c-3.996,0-7.641,1.581-10.363,4.128c-0.395-0.132-0.878-0.176-1.317-0.176
			c-2.547,0-4.567,2.02-4.567,4.566c0,1.317,0.571,2.547,1.493,3.338c-0.219,1.053-0.395,2.151-0.395,3.293
			c0,8.344,6.806,15.149,15.149,15.149c8.343,0,15.149-6.806,15.149-15.149c0-0.396-0.044-0.79-0.044-1.186
			C60.375,94.274,61.209,92.913,61.209,91.288z"/>
		<path fill="#FFFFFF" d="M64.371,88.697H23.666c-0.791,0-1.449,0.659-1.449,1.449s0.659,1.449,1.449,1.449h2.107l3.908,35.523
			h28.673l3.952-35.523h2.02c0.791,0,1.449-0.659,1.449-1.449S65.161,88.697,64.371,88.697z"/>
		<g>
			<polygon fill="#DA4437" points="41.581,91.552 41.581,127.031 46.455,127.031 46.455,91.552 			"/>
		</g>
		<g>
			<polygon fill="#DA4437" points="52.822,91.552 48.958,127.076 53.92,127.076 57.696,91.552 			"/>
		</g>
		<polygon fill="#DA4437" points="30.296,91.552 34.116,127.076 39.078,127.076 35.214,91.552 		"/>
		<polygon opacity="0.1" fill="#212121" enable-background="new    " points="62.087,93.22 25.905,93.22 25.773,91.552 
			62.263,91.552 		"/>
		<path opacity="0.1" fill="#212121" enable-background="new    " d="M22.216,90.19c0,0.791,0.659,1.449,1.449,1.449h2.107
			l1.844,16.466l34.47-14.797l0.308-1.668h1.976c0.79,0,1.449-0.659,1.449-1.449H22.216L22.216,90.19z"/>
		<ellipse opacity="0.1" fill="#212121" enable-background="new    " cx="98.226" cy="126.109" rx="34.162" ry="4.699"/>
		<ellipse opacity="0.1" fill="#212121" enable-background="new    " cx="160.315" cy="124.88" rx="14.007" ry="2.767"/>
		<ellipse opacity="0.1" fill="#212121" enable-background="new    " cx="135.813" cy="133.003" rx="17.3" ry="2.767"/>
		<ellipse opacity="0.1" fill="#212121" enable-background="new    " cx="62.131" cy="138.448" rx="21.473" ry="2.767"/>
		<g>
			<g>
				<g>
					<g>
						<defs>
							<circle id="SVGID_1_" cx="155.485" cy="108.15" r="17.916"/>
						</defs>
						<clipPath id="SVGID_2_">
							<use xlink:href="#SVGID_1_"  overflow="visible"/>
						</clipPath>
						<circle clip-path="url(#SVGID_2_)" fill="none" cx="155.485" cy="108.15" r="17.916"/>
					</g>
				</g>
			</g>
			<g>
				<g>
					<g>
						<defs>
							<circle id="SVGID_3_" cx="155.485" cy="108.15" r="17.916"/>
						</defs>
						<clipPath id="SVGID_4_">
							<use xlink:href="#SVGID_3_"  overflow="visible"/>
						</clipPath>
						<polygon clip-path="url(#SVGID_4_)" fill="#424242" points="159.218,103.407 161.545,110.564 155.441,115 149.338,110.564 
							151.665,103.407 						"/>
					</g>
				</g>
			</g>
			<g>
				<g>
					<g>
						<defs>
							<circle id="SVGID_5_" cx="155.485" cy="108.15" r="17.916"/>
						</defs>
						<clipPath id="SVGID_6_">
							<use xlink:href="#SVGID_5_"  overflow="visible"/>
						</clipPath>
						<polygon clip-path="url(#SVGID_6_)" fill="#424242" points="159.086,127.427 161.413,122.992 155.31,120.27 149.206,122.992 
							151.533,127.427 						"/>
					</g>
				</g>
			</g>
			<g>
				<g>
					<g>
						<defs>
							<circle id="SVGID_7_" cx="155.485" cy="108.15" r="17.916"/>
						</defs>
						<clipPath id="SVGID_8_">
							<use xlink:href="#SVGID_7_"  overflow="visible"/>
						</clipPath>
						<polygon clip-path="url(#SVGID_8_)" fill="#424242" points="137.746,116.8 142.575,118.029 143.805,111.487 139.721,106.218 
							135.988,109.512 						"/>
					</g>
				</g>
			</g>
			<g>
				<g>
					<g>
						<defs>
							<circle id="SVGID_9_" cx="155.485" cy="108.15" r="17.916"/>
						</defs>
						<clipPath id="SVGID_10_">
							<use xlink:href="#SVGID_9_"  overflow="visible"/>
						</clipPath>
						<polygon clip-path="url(#SVGID_10_)" fill="#424242" points="172.83,116.625 167.955,117.854 166.727,111.312 
							170.811,106.042 174.543,109.336 						"/>
					</g>
				</g>
			</g>
			<g>
				<g>
					<g>
						<defs>
							<circle id="SVGID_11_" cx="155.485" cy="108.15" r="17.916"/>
						</defs>
						<clipPath id="SVGID_12_">
							<use xlink:href="#SVGID_11_"  overflow="visible"/>
						</clipPath>
						<polygon clip-path="url(#SVGID_12_)" fill="#424242" points="169.712,95.811 168.922,100.729 162.423,99.28 159.218,93.439 
							163.697,91.288 						"/>
					</g>
				</g>
			</g>
			<g>
				<g>
					<g>
						<defs>
							<circle id="SVGID_13_" cx="155.485" cy="108.15" r="17.916"/>
						</defs>
						<clipPath id="SVGID_14_">
							<use xlink:href="#SVGID_13_"  overflow="visible"/>
						</clipPath>
						<polygon clip-path="url(#SVGID_14_)" fill="#424242" points="140.688,95.635 141.478,100.553 147.977,99.104 151.226,93.264 
							146.703,91.113 						"/>
					</g>
				</g>
			</g>
		</g>
		<g>
			<g>
				<path fill="#F1B40E" d="M120.752,149.602c-0.615,0.044-1.054,0.615-1.01,1.186l0.57,6.631c0.045,0.615,0.615,1.054,1.186,1.01
					l22.702-1.977c0.614-0.043,1.054-0.614,1.01-1.186l-0.571-6.63c-0.043-0.614-0.614-1.054-1.186-1.011L120.752,149.602z"/>
			</g>
			<g>
				<path fill="#E47368" d="M142.707,147.713c-0.614,0.045-1.053,0.615-1.01,1.186l0.57,6.631c0.045,0.615,0.615,1.054,1.186,1.01
					l2.68-0.219c0.614-0.044,1.053-0.615,1.01-1.186l-0.57-6.631c-0.045-0.615-0.615-1.055-1.187-1.01L142.707,147.713z"/>
			</g>
			
				<rect x="141.963" y="147.715" transform="matrix(-0.9963 0.0863 -0.0863 -0.9963 298.7186 291.4323)" fill="#E47368" width="2.196" height="8.914"/>
			
				<rect x="140.072" y="147.889" transform="matrix(-0.9963 0.0861 -0.0861 -0.9963 294.8008 291.9768)" fill="#F0F0F0" width="2.064" height="8.914"/>
			<polygon fill="#F3D199" points="119.609,149.689 114.648,154.607 120.4,158.559 			"/>
			<polygon fill="#4D4D4D" points="116.492,152.764 114.648,154.607 116.799,156.101 			"/>
			<g>
				<polygon fill="#F3D199" points="119.742,150.831 119.609,149.689 121.279,149.557 				"/>
				<polygon fill="#F3D199" points="121.674,153.992 120.006,154.125 119.918,153.026 				"/>
				<polygon fill="#F3D199" points="119.918,153.026 119.83,151.929 121.498,151.797 				"/>
				<polygon fill="#F3D199" points="119.742,150.831 119.83,151.929 121.498,151.797 				"/>
				<polygon fill="#F3D199" points="120.094,155.266 120.006,154.125 121.674,153.992 				"/>
				<polygon fill="#F3D199" points="122.069,158.428 120.4,158.559 120.313,157.461 				"/>
				<polygon fill="#F3D199" points="120.313,157.461 120.181,156.363 121.894,156.232 				"/>
				<polygon fill="#F3D199" points="120.094,155.266 120.181,156.363 121.894,156.232 				"/>
			</g>
			<path opacity="0.1" fill="#212121" enable-background="new    " d="M114.648,154.607l32.186-2.767l0.309,3.337
				c0.043,0.615-0.396,1.143-1.01,1.186l-25.732,2.195L114.648,154.607z"/>
		</g>
		<g>
			<g>
				<path fill="#303F98" d="M71.177,126.943"/>
				<path fill="#303F98" d="M62.614,112.102"/>
				<path fill="#F43F80" d="M88.302,126.943"/>
				<path fill="#F43F80" d="M71.177,126.943"/>
				<path fill-opacity="0.4" d="M88.302,126.943"/>
				<path fill-opacity="0.5" d="M71.177,126.943"/>
				<path fill-opacity="0.5" d="M88.302,126.943"/>
				<path fill="#FFFFFF" fill-opacity="0" d="M62.614,82.418"/>
				<path fill-opacity="0.1" d="M62.614,82.418"/>
				<path fill-opacity="0.1" d="M54.052,97.26"/>
				<path fill-opacity="0.2" d="M62.614,112.102"/>
				<path fill-opacity="0.2" d="M54.052,97.26"/>
				<path fill="#FFFFFF" fill-opacity="0" d="M62.614,112.102"/>
				<path fill-opacity="0.2" d="M71.177,126.943"/>
				<path fill-opacity="0.2" d="M131.158,82.418"/>
			</g>
		</g>
		<g>
			<path fill="#D4D1C5" d="M77.544,123.65c0.395,0.132,1.229-1.186,1.317-1.449c0.527-1.317-0.176-2.766,0.219-4.172
				c0.132-0.352,0.308-0.746,0.615-0.922c1.844-1.054,3.381,5.401,2.942,6.631C81.979,125.582,80.354,124.66,77.544,123.65z"/>
			<path fill="#E0DED7" d="M69.991,122.859c-3.162-0.351-4.831-4.127-7.992-4.698c-1.976-0.395-3.776,0.044-5.577,0.439
				c-0.482,0.176-1.01,0.22-1.493,0.263c2.854-2.283,8.563-2.326,9.704-1.492c1.186,0.834,3.601,3.161,8.65,5.182
				c0.615,0.264,1.186,0.439,1.713,0.57C73.372,123.344,71.572,123.079,69.991,122.859z"/>
			<path fill="#D4D1C5" d="M54.974,138.01c0.176,0.087-0.483-1.23-0.264-1.143C54.491,136.779,55.149,138.097,54.974,138.01z"/>
			<path fill="#D4D1C5" d="M52.69,137.219c0.132,0.044,0.308,0.088,0.483,0.131C52.954,137.307,52.822,137.263,52.69,137.219z"/>
			<path fill="#D4D1C5" d="M84.262,131.027c0-0.044,0.044-0.044,0.088-0.088C84.306,130.939,84.306,130.983,84.262,131.027z"/>
			<path fill="#D4D1C5" d="M84.218,131.115c0-0.045,0.044-0.045,0.044-0.088C84.218,131.07,84.218,131.07,84.218,131.115
				c-0.044,0.132-0.264,0.044-0.615-0.088C83.911,131.203,84.13,131.247,84.218,131.115z"/>
			<path fill="#D4D1C5" d="M41.581,129.402c-0.131,0.22-0.263,0.482-0.307,0.747C41.273,129.885,41.405,129.622,41.581,129.402z"/>
			<path fill="#C7C4B8" d="M83.076,130.852c-1.405-0.615-3.996-1.756-6.85-1.098c-0.396,0.088-0.747,0.22-1.142,0.352
				c0.352-0.132,0.747-0.264,1.142-0.352C79.081,129.096,81.671,130.236,83.076,130.852z"/>
			<path fill="#C7C4B8" d="M84.35,130.895L84.35,130.895L84.35,130.895z"/>
			<path fill="#C7C4B8" d="M84.262,131.027L84.262,131.027L84.262,131.027z"/>
			<path fill="#C7C4B8" d="M74.382,130.412c0.219-0.131,0.483-0.219,0.702-0.307C74.865,130.193,74.602,130.281,74.382,130.412z"/>
			<path fill="#C7C4B8" d="M41.01,131.159c6.411,8.124,12.119,8.036,14.578,7.815c1.844-0.131,3.82-0.176,5.664-0.482
				c1.801-0.308,3.557-1.405,5.226-2.107c0.131-0.045,0.263-0.133,0.395-0.176c-0.132,0.088-0.264,0.131-0.395,0.176
				c1.8-0.747,3.469-2.723,5.445-4.304c0.439-0.396,0.922-0.747,1.405-1.054c0.308-0.219,0.659-0.395,1.01-0.57
				c0.219-0.133,0.483-0.221,0.703-0.308c0.351-0.132,0.747-0.265,1.141-0.352c1.362-0.308,2.723-0.22,4.084,0.087
				c1.142,0.265,2.108,0.879,3.25,1.186c0.131,0.045,0.307,0.089,0.483,0.045c0.308-0.045,0.791-0.879,0.966-0.834
				c-0.307-0.132-0.57-1.186-0.922-1.449c-7.641-5.533-12.207,1.844-19.013,0.658c-4.918-0.702-11.197-8.387-16.072-2.723
				c-2.854,2.328-3.117,2.283-6.455,1.581c-0.176-0.044-0.658,0.659-0.878,1.01c-0.088,0.132-0.132,0.176-0.132,0.22
				C41.186,130.061,40.703,130.72,41.01,131.159z M69.815,133.969c0.264-0.263,0.571-0.526,0.834-0.79
				C70.342,133.442,70.079,133.706,69.815,133.969z M67.356,135.945c0.396-0.264,0.834-0.57,1.229-0.879
				C68.147,135.375,67.752,135.682,67.356,135.945z"/>
			<path fill="#D4D1C5" d="M85.008,130.281c-0.307-0.132-0.57-0.308-0.922-0.571c-7.641-5.532-12.207,1.845-19.014,0.659
				c-4.918-0.703-11.197-8.388-16.071-2.723c-2.854,2.327-3.118,1.404-6.455,0.702c0.878-0.878,2.064-1.712,2.678-1.845
				c1.23-0.263,1.537-0.746,2.24-1.361c0.615-0.526,1.844-3.424,4.303-5.971l-1.186,1.536c-4.215-0.746-8.563-8.913-7.245-8.519
				c1.581,0.439,2.942,1.669,4.698,2.415c1.756,0.79,4.215,1.449,6.762,1.054c1.493-0.219,3.074-0.219,4.611-0.176
				c1.756,0.045,3.645,0.088,5.182,1.01c0.878,0.527,1.537,1.274,2.415,1.801c0.659,0.395,1.23,0.834,1.888,1.229
				c1.713,1.01,3.469,1.888,5.313,2.636c5.84,2.326,8.211-0.133,9.353,0.746c1.932,1.492,0.22,2.81,0.747,3.6
				c0.526,0.791,2.327,1.273,1.932,2.284c-0.352,0.878-1.406,1.624-1.844,2.151C84.525,130.72,84.745,130.5,85.008,130.281z"/>
			<g>
				<path fill="#6C695D" d="M79.168,125.318c0.922,0.439,2.02-0.087,2.371-0.395c-0.22-0.176-0.527-0.352-0.834-0.527
					c-0.615-0.352-1.362-0.614-1.713-0.482c-0.219,0.088-0.395,0.526-0.307,1.01C78.773,125.056,78.949,125.231,79.168,125.318z"/>
			</g>
			<path fill="#D4D1C5" d="M36.575,117.459c-1.186,0.702,6.147,10.275,10.319,9.66c4.171-0.615,3.381-5.928,5.401-6.543
				c1.976-0.614,2.722-0.57,2.371-1.756c-0.351-1.143-1.932-0.57-4.259,0.57c-2.328,1.186-4.26,1.098-6.147,0.922
				C42.459,120.094,37.717,116.8,36.575,117.459z"/>
			<g>
				<path fill="#939084" d="M59.716,122.859c-2.107,0.045-3.864,1.318-4.259,3.03c-0.044-0.22-0.088-0.438-0.088-0.702
					c0-2.02,1.932-3.688,4.303-3.732c2.415-0.045,4.391,1.58,4.391,3.645c0,0.219-0.043,0.482-0.088,0.702
					C63.624,124.09,61.868,122.816,59.716,122.859z"/>
				<path fill="#6C695D" d="M59.804,128.832c-2.107,0.043-3.908-1.23-4.303-2.942c0.352-1.712,2.108-2.985,4.259-3.03
					c2.108-0.043,3.908,1.23,4.303,2.942C63.668,127.471,61.911,128.788,59.804,128.832z"/>
			</g>
			<path fill="#C7C4B8" d="M72.757,134.716c0.527,0.263,1.186,0.835,1.844,0.747c0.834-0.088,1.054-0.922,1.668-1.361
				c0.396-0.264,0.922-0.396,1.317-0.133c0.264,0.133,0.439,0.396,0.659,0.615c0.22,0.219,0.483,0.395,0.791,0.352
				c0.395-0.088,0.571-0.483,0.747-0.834c0.395-0.659,1.054-1.143,1.756-1.273c0.747-0.132,1.537,0.043,2.152,0.482
				c0.351,0.264-1.756,3.645-2.108,3.996c-1.361,1.361-3.337,2.151-5.182,2.459c-3.82,0.658-7.289,0.219-10.451-1.977
				c-0.395-0.264-0.834-0.57-0.966-1.053c-0.131-0.352-0.087-0.747-0.131-1.099c-0.132-0.746-0.659-1.361-0.747-2.063
				c-0.132-1.229,1.098-2.327,2.328-2.371c1.229-0.088,2.415,0.57,3.381,1.361C70.737,133.267,71.616,134.188,72.757,134.716z"/>
		</g>
		<polygon fill="#F18159" points="143.498,71.88 141.873,71.88 141.873,59.058 143.498,59.716 		"/>
		<polygon fill="#F18159" points="151.797,68.103 150.172,68.103 150.172,57.784 151.797,56.292 		"/>
		<circle fill="#4D4D4D" cx="149.602" cy="67.971" r="2.196"/>
		<circle fill="#4D4D4D" cx="141.303" cy="71.88" r="2.196"/>
		<polygon opacity="0.3" fill="#212121" enable-background="new    " points="143.498,66.83 141.873,64.196 141.873,63.449 
			143.498,62.966 		"/>
		<polygon opacity="0.3" fill="#212121" enable-background="new    " points="151.797,63.625 150.172,60.99 150.172,60.288 
			151.797,60.463 		"/>
		<polygon fill="#F7B256" points="151.797,60.463 141.873,63.449 141.873,59.058 151.797,56.072 		"/>
		<g id="plane_1_">
			<g id="wing_1_" opacity="0.8">
				<path fill="#E0E0E0" d="M125.143,41.889l3.426-3.206c0.088-0.088,0.043-0.263-0.088-0.263l-8.695-1.273
					c-0.131,0-0.219,0-0.307,0.087l-1.055,0.966c-0.043,0.044-0.088,0.132-0.088,0.176s0.045,0.088,0.045,0.132l0.043,0.043
					l6.412,3.557L125.143,41.889z"/>
			</g>
			<g id="plane_2_">
				<path fill="#E0E0E0" d="M132.871,51.242l-0.791-10.319c0-0.044,0-0.088,0.045-0.132l4.084-3.82
					c0.438-0.395,0.703-0.922,0.746-1.493c0.088-1.712-1.889-1.537-2.679-0.79l-4.216,3.952l-5.752,5.357l-2.591,2.415
					c-0.044,0.044-0.087,0.044-0.132,0.044l-2.766-0.352c-0.088,0-0.221,0-0.264,0.088l-0.352,0.352
					c-0.044,0.044-0.088,0.088-0.044,0.175c0,0.044,0.044,0.088,0.044,0.088l0.043,0.044l3.25,1.756
					c0.045,0,0.045,0.044,0.088,0.088l1.537,3.381c0,0,0,0.044,0.044,0.044c0.044,0.043,0.044,0.043,0.088,0.043
					s0.132,0,0.175-0.043l0.352-0.352c0.088-0.088,0.133-0.176,0.133-0.264l-0.176-2.766c0-0.044,0-0.088,0.043-0.132l3.908-3.645
					c0.088-0.088,0.221-0.044,0.264,0.044l3.425,7.421c0,0.044,0.044,0.044,0.044,0.044c0.045,0.044,0.088,0.044,0.132,0.088
					c0.089,0,0.132,0,0.175-0.044l1.055-0.966C132.827,51.461,132.871,51.33,132.871,51.242z"/>
			</g>
		</g>
		<ellipse fill="#F2BF24" cx="50.934" cy="140.468" rx="2.02" ry="2.02"/>
		<ellipse fill="#F2BF24" cx="50.451" cy="138.667" rx="1.405" ry="1.405"/>
		<ellipse fill="#F2BF24" cx="49.045" cy="140.775" rx="1.405" ry="1.405"/>
		<ellipse fill="#F2BF24" cx="17.254" cy="129.402" rx="2.02" ry="2.02"/>
		<ellipse fill="#F2BF24" cx="16.333" cy="130.983" rx="1.405" ry="1.405"/>
		<ellipse fill="#F2BF24" cx="18.792" cy="130.5" rx="1.405" ry="1.405"/>
		<polyline opacity="0.1" fill="#212121" enable-background="new    " points="120.4,158.559 121.498,159.306 148.416,158.559 
			146.439,156.232 		"/>
		<polyline fill-opacity="0.1" points="122.596,126.943 130.857,112.102 113.73,112.102 		"/>
		<path fill-opacity="0.2" d="M105.471,126.943"/>
		<path fill-opacity="0.2" d="M122.596,126.943"/>
		<path fill-opacity="0.2" d="M114.033,112.102"/>
		<g>
			<path fill="#F5F5F5" d="M139.809,109.687V94.011h-8.826v15.676h-0.088l-11.285,18.442c-1.535,3.602,1.449,4.918,4.172,4.918
				h23.229c2.723,0,6.279-1.404,4.172-4.918L139.809,109.687L139.809,109.687z"/>
			<path fill="#7CB242" d="M145.342,118.732h-20.023l-5.797,9.396c-1.536,3.602,1.449,4.918,4.172,4.918h23.229
				c2.722,0,6.279-1.404,4.171-4.918L145.342,118.732z"/>
			<path fill="#548B2F" d="M145.342,118.732h-9.572v14.271h11.153c2.722,0,6.279-1.406,4.171-4.918L145.342,118.732z"/>
			<circle opacity="0.2" fill="#FFFFFF" enable-background="new    " cx="138.492" cy="129.886" r="1.317"/>
			<circle opacity="0.2" fill="#FFFFFF" enable-background="new    " cx="139.063" cy="121.806" r="1.142"/>
			<circle opacity="0.2" fill="#FFFFFF" enable-background="new    " cx="145.693" cy="129.886" r="1.405"/>
			<circle opacity="0.2" fill="#FFFFFF" enable-background="new    " cx="140.818" cy="126.724" r="0.791"/>
			<path opacity="0.2" fill="#FFFFFF" enable-background="new    " d="M145.43,122.377c0,0.482-0.395,0.922-0.922,0.922
				c-0.483,0-0.922-0.395-0.922-0.922c0-0.483,0.395-0.922,0.922-0.922S145.43,121.894,145.43,122.377z"/>
			<path opacity="0.2" fill="#FFFFFF" enable-background="new    " d="M131.422,121.762c0-0.878,0.703-1.537,1.537-1.537
				c0.879,0,1.537,0.703,1.537,1.537c0,0.879-0.703,1.537-1.537,1.537C132.125,123.344,131.422,122.641,131.422,121.762z"/>
			<circle opacity="0.2" fill="#FFFFFF" enable-background="new    " cx="133.004" cy="129.886" r="1.142"/>
			<circle opacity="0.2" fill="#FFFFFF" enable-background="new    " cx="125.801" cy="123.958" r="1.405"/>
			<circle opacity="0.2" fill="#FFFFFF" enable-background="new    " cx="129.621" cy="126.285" r="0.791"/>
			<path opacity="0.2" fill="#FFFFFF" enable-background="new    " d="M124.879,129.885c0-0.526,0.439-0.921,0.922-0.921
				c0.484,0,0.924,0.438,0.924,0.921c0,0.527-0.439,0.924-0.924,0.924C125.274,130.809,124.879,130.369,124.879,129.885z"/>
			<rect x="130.939" y="94.055" opacity="0.2" fill="#424242" enable-background="new    " width="8.869" height="1.054"/>
			<g>
				<path fill="#E1E1E1" d="M130.281,94.055h10.143c0.658,0,1.142-0.615,1.142-1.361c0-0.791-0.527-1.405-1.142-1.405h-10.143
					c-0.66,0-1.143,0.615-1.143,1.405C129.096,93.439,129.621,94.055,130.281,94.055z"/>
			</g>
		</g>
		<rect x="-13" y="-13.175" fill="none" width="224.822" height="224.823"/>
	</g>
</g>
<path fill="#F2BF24" d="M25.466,129.622c0-1.116,0.904-2.021,2.02-2.021s2.02,0.904,2.02,2.021s-0.904,2.021-2.02,2.021
	S25.466,130.738,25.466,129.622"/>
<path fill="#F2BF24" d="M25.159,131.203c0-0.776,0.629-1.405,1.405-1.405c0.776,0,1.406,0.629,1.406,1.405
	c0,0.775-0.629,1.404-1.406,1.404C25.788,132.607,25.159,131.979,25.159,131.203"/>
<ellipse fill="#F2BF24" cx="29.023" cy="130.72" rx="1.405" ry="1.405"/>
<polygon fill="#E0E0E0" points="34.083,43.353 34.083,61.956 45.104,63.625 45.104,43.353 "/>
<rect x="45.716" y="43.353" fill="#BCBBB5" width="3.242" height="20.096"/>
<polygon fill="#E0E0E0" points="60.716,43.353 60.716,61.956 49.696,63.625 49.696,43.353 "/>
</svg>
