<?xml version="1.0" encoding="utf-8"?>
<!-- Generator: Adobe Illustrator 16.0.2, SVG Export Plug-In . SVG Version: 6.00 Build 0)  -->
<!DOCTYPE svg PUBLIC "-//W3C//DTD SVG 1.1//EN" "http://www.w3.org/Graphics/SVG/1.1/DTD/svg11.dtd">
<svg version="1.1" id="Layer_1" xmlns="http://www.w3.org/2000/svg" xmlns:xlink="http://www.w3.org/1999/xlink" x="0px" y="0px"
	 width="100px" height="100px" viewBox="0 0 100 100" enable-background="new 0 0 100 100" xml:space="preserve">
<polyline fill="#F18159" points="41.587,70.296 41.587,35.393 46.01,37.186 46.01,70.296 "/>
<polygon fill="#F18159" points="68.601,60.016 64.178,60.016 64.178,31.926 68.601,27.862 "/>
<path fill="#4D4D4D" d="M62.624,65.634c-3.301,0-5.977-2.676-5.977-5.977s2.676-5.977,5.977-5.977s5.977,2.676,5.977,5.977
	S65.925,65.634,62.624,65.634"/>
<polygon opacity="0.3" fill="#212121" enable-background="new    " points="46.01,56.55 41.587,49.378 41.587,47.346 46.01,46.031 
	"/>
<polygon opacity="0.3" fill="#212121" enable-background="new    " points="68.601,47.824 64.178,40.652 64.178,38.739 
	68.601,39.218 "/>
<polygon fill="#F7B256" points="68.601,39.218 41.587,47.346 41.587,35.393 68.601,27.265 "/>
<path fill="#4D4D4D" d="M40.033,73.815c-3.301,0-5.977-2.676-5.977-5.977s2.676-5.977,5.977-5.977s5.977,2.676,5.977,5.977
	S43.334,73.815,40.033,73.815"/>
</svg>
